<svg xmlns="http://www.w3.org/2000/svg" version="1.1" xmlns:xlink="http://www.w3.org/1999/xlink" xmlns:svgjs="http://svgjs.dev/svgjs" viewBox="0 0 2400 800" opacity="1"><defs><linearGradient x1="50%" y1="0%" x2="50%" y2="100%" id="sssurf-grad"><stop stop-color="#3e414a" stop-opacity="1" offset="0%"></stop><stop stop-color="hsla(0, 0%, 18%, 1.00)" stop-opacity="1" offset="100%"></stop></linearGradient></defs><g fill="#2e2e2e" transform="matrix(1,0,0,1,0,-67.23745727539062)"><path d="M 0 397.2356278690098 Q 900 510.07441668881324 1200 259.4749200507779 Q 2100 613.2365563163303 2400 345.6313284911108 L 2400 800 L 0 800 L 0 299.87983019794615 Z" transform="matrix(1,0,0,1,0,25)" opacity="0.05"></path><path d="M 0 397.2356278690098 Q 900 510.07441668881324 1200 259.4749200507779 Q 2100 613.2365563163303 2400 345.6313284911108 L 2400 800 L 0 800 L 0 299.87983019794615 Z" transform="matrix(1,0,0,1,0,50)" opacity="0.16"></path><path d="M 0 397.2356278690098 Q 900 510.07441668881324 1200 259.4749200507779 Q 2100 613.2365563163303 2400 345.6313284911108 L 2400 800 L 0 800 L 0 299.87983019794615 Z" transform="matrix(1,0,0,1,0,75)" opacity="0.26"></path><path d="M 0 397.2356278690098 Q 900 510.07441668881324 1200 259.4749200507779 Q 2100 613.2365563163303 2400 345.6313284911108 L 2400 800 L 0 800 L 0 299.87983019794615 Z" transform="matrix(1,0,0,1,0,100)" opacity="0.37"></path><path d="M 0 397.2356278690098 Q 900 510.07441668881324 1200 259.4749200507779 Q 2100 613.2365563163303 2400 345.6313284911108 L 2400 800 L 0 800 L 0 299.87983019794615 Z" transform="matrix(1,0,0,1,0,125)" opacity="0.47"></path><path d="M 0 397.2356278690098 Q 900 510.07441668881324 1200 259.4749200507779 Q 2100 613.2365563163303 2400 345.6313284911108 L 2400 800 L 0 800 L 0 299.87983019794615 Z" transform="matrix(1,0,0,1,0,150)" opacity="0.58"></path><path d="M 0 397.2356278690098 Q 900 510.07441668881324 1200 259.4749200507779 Q 2100 613.2365563163303 2400 345.6313284911108 L 2400 800 L 0 800 L 0 299.87983019794615 Z" transform="matrix(1,0,0,1,0,175)" opacity="0.68"></path><path d="M 0 397.2356278690098 Q 900 510.07441668881324 1200 259.4749200507779 Q 2100 613.2365563163303 2400 345.6313284911108 L 2400 800 L 0 800 L 0 299.87983019794615 Z" transform="matrix(1,0,0,1,0,200)" opacity="0.79"></path><path d="M 0 397.2356278690098 Q 900 510.07441668881324 1200 259.4749200507779 Q 2100 613.2365563163303 2400 345.6313284911108 L 2400 800 L 0 800 L 0 299.87983019794615 Z" transform="matrix(1,0,0,1,0,225)" opacity="0.89"></path><path d="M 0 397.2356278690098 Q 900 510.07441668881324 1200 259.4749200507779 Q 2100 613.2365563163303 2400 345.6313284911108 L 2400 800 L 0 800 L 0 299.87983019794615 Z" transform="matrix(1,0,0,1,0,250)" opacity="1.00"></path></g></svg>