<svg xmlns="http://www.w3.org/2000/svg" version="1.1" xmlns:xlink="http://www.w3.org/1999/xlink" xmlns:svgjs="http://svgjs.dev/svgjs" viewBox="0 0 800 800"><defs><linearGradient x1="50%" y1="0%" x2="50%" y2="100%" id="ffflurry-grad" gradientTransform="rotate(270)"><stop stop-color="hsl(0, 0%, 0%)" stop-opacity="1" offset="0%"></stop><stop stop-color="hsl(0, 0%, 0%)" stop-opacity="1" offset="45%"></stop><stop stop-color="hsl(0, 0%, 33%)" stop-opacity="1" offset="100%"></stop></linearGradient></defs><rect width="100%" height="100%" fill="hsl(0, 0%, 0%)"></rect><g fill="url(#ffflurry-grad)"><rect width="711" height="3" x="5.5" y="750.5" rx="1.5" transform="rotate(45, 361, 752)" opacity="0.12"></rect><rect width="254" height="3" x="580" y="716.5" rx="1.5" transform="rotate(45, 707, 718)" opacity="0.14"></rect><rect width="494" height="3" x="429" y="197.5" rx="1.5" transform="rotate(45, 676, 199)" opacity="0.09"></rect><rect width="351" height="3" x="136.5" y="48.5" rx="1.5" transform="rotate(45, 312, 50)" opacity="0.22"></rect><rect width="380" height="3" x="103" y="441.5" rx="1.5" transform="rotate(45, 293, 443)" opacity="0.39"></rect><rect width="112" height="3" x="210" y="341.5" rx="1.5" transform="rotate(45, 266, 343)" opacity="0.32"></rect><rect width="40" height="3" x="738" y="717.5" rx="1.5" transform="rotate(45, 758, 719)" opacity="0.33"></rect><rect width="250" height="3" x="119" y="763.5" rx="1.5" transform="rotate(45, 244, 765)" opacity="0.52"></rect><rect width="53" height="3" x="543.5" y="317.5" rx="1.5" transform="rotate(45, 570, 319)" opacity="0.10"></rect><rect width="269" height="3" x="239.5" y="506.5" rx="1.5" transform="rotate(45, 374, 508)" opacity="0.67"></rect><rect width="68" height="3" x="513" y="34.5" rx="1.5" transform="rotate(45, 547, 36)" opacity="0.43"></rect><rect width="210" height="3" x="73" y="559.5" rx="1.5" transform="rotate(45, 178, 561)" opacity="0.34"></rect><rect width="240" height="3" x="651" y="129.5" rx="1.5" transform="rotate(45, 771, 131)" opacity="0.94"></rect><rect width="183" height="3" x="687.5" y="676.5" rx="1.5" transform="rotate(45, 779, 678)" opacity="0.78"></rect><rect width="95" height="3" x="601.5" y="589.5" rx="1.5" transform="rotate(45, 649, 591)" opacity="0.14"></rect><rect width="181" height="3" x="608.5" y="769.5" rx="1.5" transform="rotate(45, 699, 771)" opacity="0.14"></rect><rect width="229" height="3" x="80.5" y="376.5" rx="1.5" transform="rotate(45, 195, 378)" opacity="0.83"></rect><rect width="483" height="3" x="7.5" y="194.5" rx="1.5" transform="rotate(45, 249, 196)" opacity="0.87"></rect><rect width="238" height="3" x="287" y="160.5" rx="1.5" transform="rotate(45, 406, 162)" opacity="0.11"></rect><rect width="337" height="3" x="311.5" y="709.5" rx="1.5" transform="rotate(45, 480, 711)" opacity="0.64"></rect><rect width="373" height="3" x="155.5" y="610.5" rx="1.5" transform="rotate(45, 342, 612)" opacity="0.63"></rect><rect width="356" height="3" x="55" y="117.5" rx="1.5" transform="rotate(45, 233, 119)" opacity="0.98"></rect><rect width="114" height="3" x="-17" y="721.5" rx="1.5" transform="rotate(45, 40, 723)" opacity="0.90"></rect><rect width="274" height="3" x="452" y="478.5" rx="1.5" transform="rotate(45, 589, 480)" opacity="0.36"></rect><rect width="205" height="3" x="93.5" y="431.5" rx="1.5" transform="rotate(45, 196, 433)" opacity="0.76"></rect><rect width="188" height="3" x="504" y="177.5" rx="1.5" transform="rotate(45, 598, 179)" opacity="0.94"></rect><rect width="555" height="3" x="265.5" y="232.5" rx="1.5" transform="rotate(45, 543, 234)" opacity="0.83"></rect><rect width="409" height="3" x="-144.5" y="261.5" rx="1.5" transform="rotate(45, 60, 263)" opacity="0.29"></rect><rect width="196" height="3" x="597" y="125.5" rx="1.5" transform="rotate(45, 695, 127)" opacity="0.18"></rect><rect width="374" height="3" x="237" y="53.5" rx="1.5" transform="rotate(45, 424, 55)" opacity="0.99"></rect><rect width="323" height="3" x="548.5" y="657.5" rx="1.5" transform="rotate(45, 710, 659)" opacity="0.75"></rect><rect width="190" height="3" x="663" y="361.5" rx="1.5" transform="rotate(45, 758, 363)" opacity="0.26"></rect><rect width="513" height="3" x="-209.5" y="45.5" rx="1.5" transform="rotate(45, 47, 47)" opacity="0.96"></rect><rect width="689" height="3" x="166.5" y="128.5" rx="1.5" transform="rotate(45, 511, 130)" opacity="0.84"></rect><rect width="859" height="3" x="-355.5" y="607.5" rx="1.5" transform="rotate(45, 74, 609)" opacity="0.44"></rect><rect width="588" height="3" x="172" y="482.5" rx="1.5" transform="rotate(45, 466, 484)" opacity="0.57"></rect><rect width="455" height="3" x="102.5" y="170.5" rx="1.5" transform="rotate(45, 330, 172)" opacity="0.41"></rect><rect width="311" height="3" x="452.5" y="96.5" rx="1.5" transform="rotate(45, 608, 98)" opacity="0.38"></rect><rect width="452" height="3" x="211" y="591.5" rx="1.5" transform="rotate(45, 437, 593)" opacity="0.79"></rect><rect width="425" height="3" x="150.5" y="391.5" rx="1.5" transform="rotate(45, 363, 393)" opacity="0.99"></rect><rect width="219" height="3" x="91.5" y="34.5" rx="1.5" transform="rotate(45, 201, 36)" opacity="0.08"></rect><rect width="376" height="3" x="436" y="762.5" rx="1.5" transform="rotate(45, 624, 764)" opacity="0.79"></rect><rect width="167" height="3" x="381.5" y="222.5" rx="1.5" transform="rotate(45, 465, 224)" opacity="0.66"></rect><rect width="453" height="3" x="24.5" y="265.5" rx="1.5" transform="rotate(45, 251, 267)" opacity="0.43"></rect><rect width="456" height="3" x="-5" y="482.5" rx="1.5" transform="rotate(45, 223, 484)" opacity="0.10"></rect><rect width="275" height="3" x="-96.5" y="364.5" rx="1.5" transform="rotate(45, 41, 366)" opacity="0.87"></rect><rect width="290" height="3" x="92" y="614.5" rx="1.5" transform="rotate(45, 237, 616)" opacity="0.49"></rect><rect width="413" height="3" x="74.5" y="533.5" rx="1.5" transform="rotate(45, 281, 535)" opacity="0.50"></rect><rect width="482" height="3" x="248" y="319.5" rx="1.5" transform="rotate(45, 489, 321)" opacity="0.59"></rect><rect width="105" height="3" x="499.5" y="752.5" rx="1.5" transform="rotate(45, 552, 754)" opacity="0.85"></rect><rect width="246" height="3" x="609" y="517.5" rx="1.5" transform="rotate(45, 732, 519)" opacity="0.78"></rect><rect width="366" height="3" x="-55" y="501.5" rx="1.5" transform="rotate(45, 128, 503)" opacity="0.24"></rect><rect width="127" height="3" x="694.5" y="600.5" rx="1.5" transform="rotate(45, 758, 602)" opacity="0.45"></rect><rect width="224" height="3" x="5" y="771.5" rx="1.5" transform="rotate(45, 117, 773)" opacity="0.79"></rect><rect width="328" height="3" x="213" y="288.5" rx="1.5" transform="rotate(45, 377, 290)" opacity="0.92"></rect><rect width="98" height="3" x="720" y="769.5" rx="1.5" transform="rotate(45, 769, 771)" opacity="0.28"></rect><rect width="178" height="3" x="15" y="425.5" rx="1.5" transform="rotate(45, 104, 427)" opacity="0.89"></rect><rect width="305" height="3" x="491.5" y="695.5" rx="1.5" transform="rotate(45, 644, 697)" opacity="0.28"></rect><rect width="237" height="3" x="338.5" y="769.5" rx="1.5" transform="rotate(45, 457, 771)" opacity="0.22"></rect><rect width="464" height="3" x="-88" y="321.5" rx="1.5" transform="rotate(45, 144, 323)" opacity="0.57"></rect><rect width="421" height="3" x="502.5" y="38.5" rx="1.5" transform="rotate(45, 713, 40)" opacity="0.20"></rect><rect width="499" height="3" x="340.5" y="639.5" rx="1.5" transform="rotate(45, 590, 641)" opacity="0.36"></rect><rect width="371" height="3" x="88.5" y="689.5" rx="1.5" transform="rotate(45, 274, 691)" opacity="0.97"></rect><rect width="71" height="3" x="444.5" y="398.5" rx="1.5" transform="rotate(45, 480, 400)" opacity="0.78"></rect><rect width="150" height="3" x="450" y="661.5" rx="1.5" transform="rotate(45, 525, 663)" opacity="0.34"></rect><rect width="365" height="3" x="450.5" y="254.5" rx="1.5" transform="rotate(45, 633, 256)" opacity="0.88"></rect><rect width="313" height="3" x="250.5" y="673.5" rx="1.5" transform="rotate(45, 407, 675)" opacity="0.45"></rect><rect width="136" height="3" x="86" y="695.5" rx="1.5" transform="rotate(45, 154, 697)" opacity="0.97"></rect><rect width="618" height="3" x="-180" y="77.5" rx="1.5" transform="rotate(45, 129, 79)" opacity="0.52"></rect><rect width="425" height="3" x="-165.5" y="155.5" rx="1.5" transform="rotate(45, 47, 157)" opacity="0.16"></rect><rect width="314" height="3" x="474" y="359.5" rx="1.5" transform="rotate(45, 631, 361)" opacity="0.54"></rect><rect width="510" height="3" x="470" y="285.5" rx="1.5" transform="rotate(45, 725, 287)" opacity="0.32"></rect><rect width="525" height="3" x="442.5" y="434.5" rx="1.5" transform="rotate(45, 705, 436)" opacity="0.67"></rect><rect width="417" height="3" x="-172.5" y="495.5" rx="1.5" transform="rotate(45, 36, 497)" opacity="0.32"></rect><rect width="517" height="3" x="-108.5" y="195.5" rx="1.5" transform="rotate(45, 150, 197)" opacity="0.12"></rect><rect width="511" height="3" x="270.5" y="567.5" rx="1.5" transform="rotate(45, 526, 569)" opacity="0.32"></rect><rect width="328" height="3" x="591" y="220.5" rx="1.5" transform="rotate(45, 755, 222)" opacity="0.88"></rect></g></svg>