<svg xmlns="http://www.w3.org/2000/svg" version="1.1" xmlns:xlink="http://www.w3.org/1999/xlink" xmlns:svgjs="http://svgjs.dev/svgjs" viewBox="0 0 2400 800" opacity="1"><defs><linearGradient x1="50%" y1="0%" x2="50%" y2="100%" id="sssurf-grad"><stop stop-color="hsl(208, 77%, 50%)" stop-opacity="1" offset="0%"></stop><stop stop-color="hsl(208, 74%, 93%)" stop-opacity="1" offset="100%"></stop></linearGradient></defs><g fill="#3e414a" transform="matrix(1,0,0,1,0,-141.07452392578125)"><path d="M 0 340.9930240143808 Q 900 538.9891135075025 1200 376.6134890674497 Q 2100 568.7572125270458 2400 312.9975804412019 L 2400 800 L 0 800 L 0 232.14902777766122 Z" transform="matrix(1,0,0,1,0,25)" opacity="0.05"></path><path d="M 0 340.9930240143808 Q 900 538.9891135075025 1200 376.6134890674497 Q 2100 568.7572125270458 2400 312.9975804412019 L 2400 800 L 0 800 L 0 232.14902777766122 Z" transform="matrix(1,0,0,1,0,50)" opacity="0.11"></path><path d="M 0 340.9930240143808 Q 900 538.9891135075025 1200 376.6134890674497 Q 2100 568.7572125270458 2400 312.9975804412019 L 2400 800 L 0 800 L 0 232.14902777766122 Z" transform="matrix(1,0,0,1,0,75)" opacity="0.17"></path><path d="M 0 340.9930240143808 Q 900 538.9891135075025 1200 376.6134890674497 Q 2100 568.7572125270458 2400 312.9975804412019 L 2400 800 L 0 800 L 0 232.14902777766122 Z" transform="matrix(1,0,0,1,0,100)" opacity="0.23"></path><path d="M 0 340.9930240143808 Q 900 538.9891135075025 1200 376.6134890674497 Q 2100 568.7572125270458 2400 312.9975804412019 L 2400 800 L 0 800 L 0 232.14902777766122 Z" transform="matrix(1,0,0,1,0,125)" opacity="0.29"></path><path d="M 0 340.9930240143808 Q 900 538.9891135075025 1200 376.6134890674497 Q 2100 568.7572125270458 2400 312.9975804412019 L 2400 800 L 0 800 L 0 232.14902777766122 Z" transform="matrix(1,0,0,1,0,150)" opacity="0.35"></path><path d="M 0 340.9930240143808 Q 900 538.9891135075025 1200 376.6134890674497 Q 2100 568.7572125270458 2400 312.9975804412019 L 2400 800 L 0 800 L 0 232.14902777766122 Z" transform="matrix(1,0,0,1,0,175)" opacity="0.41"></path><path d="M 0 340.9930240143808 Q 900 538.9891135075025 1200 376.6134890674497 Q 2100 568.7572125270458 2400 312.9975804412019 L 2400 800 L 0 800 L 0 232.14902777766122 Z" transform="matrix(1,0,0,1,0,200)" opacity="0.47"></path><path d="M 0 340.9930240143808 Q 900 538.9891135075025 1200 376.6134890674497 Q 2100 568.7572125270458 2400 312.9975804412019 L 2400 800 L 0 800 L 0 232.14902777766122 Z" transform="matrix(1,0,0,1,0,225)" opacity="0.53"></path><path d="M 0 340.9930240143808 Q 900 538.9891135075025 1200 376.6134890674497 Q 2100 568.7572125270458 2400 312.9975804412019 L 2400 800 L 0 800 L 0 232.14902777766122 Z" transform="matrix(1,0,0,1,0,250)" opacity="0.58"></path><path d="M 0 340.9930240143808 Q 900 538.9891135075025 1200 376.6134890674497 Q 2100 568.7572125270458 2400 312.9975804412019 L 2400 800 L 0 800 L 0 232.14902777766122 Z" transform="matrix(1,0,0,1,0,275)" opacity="0.64"></path><path d="M 0 340.9930240143808 Q 900 538.9891135075025 1200 376.6134890674497 Q 2100 568.7572125270458 2400 312.9975804412019 L 2400 800 L 0 800 L 0 232.14902777766122 Z" transform="matrix(1,0,0,1,0,300)" opacity="0.70"></path><path d="M 0 340.9930240143808 Q 900 538.9891135075025 1200 376.6134890674497 Q 2100 568.7572125270458 2400 312.9975804412019 L 2400 800 L 0 800 L 0 232.14902777766122 Z" transform="matrix(1,0,0,1,0,325)" opacity="0.76"></path><path d="M 0 340.9930240143808 Q 900 538.9891135075025 1200 376.6134890674497 Q 2100 568.7572125270458 2400 312.9975804412019 L 2400 800 L 0 800 L 0 232.14902777766122 Z" transform="matrix(1,0,0,1,0,350)" opacity="0.82"></path><path d="M 0 340.9930240143808 Q 900 538.9891135075025 1200 376.6134890674497 Q 2100 568.7572125270458 2400 312.9975804412019 L 2400 800 L 0 800 L 0 232.14902777766122 Z" transform="matrix(1,0,0,1,0,375)" opacity="0.88"></path><path d="M 0 340.9930240143808 Q 900 538.9891135075025 1200 376.6134890674497 Q 2100 568.7572125270458 2400 312.9975804412019 L 2400 800 L 0 800 L 0 232.14902777766122 Z" transform="matrix(1,0,0,1,0,400)" opacity="0.94"></path><path d="M 0 340.9930240143808 Q 900 538.9891135075025 1200 376.6134890674497 Q 2100 568.7572125270458 2400 312.9975804412019 L 2400 800 L 0 800 L 0 232.14902777766122 Z" transform="matrix(1,0,0,1,0,425)" opacity="1.00"></path></g></svg>